<svg xmlns="http://www.w3.org/2000/svg" version="1.1" xmlns:xlink="http://www.w3.org/1999/xlink" xmlns:svgjs="http://svgjs.com/svgjs" width="767" height="1080" preserveAspectRatio="none" viewBox="0 0 767 1080"><g mask="url(&quot;#SvgjsMask1006&quot;)" fill="none"><path d="M-86.36 750.64L-86.36 750.64" stroke="#132e65" stroke-width="1.5"></path><path d="M-86.36 750.64L-40.83 867.87" stroke="#132e65" stroke-width="1.5"></path><path d="M-86.36 750.64L60.72 761.61" stroke="#132e65" stroke-width="1.5"></path><path d="M-86.36 750.64L-96.35 994.26" stroke="#132e65" stroke-width="1.5"></path><path d="M-40.83 867.87L-40.83 867.87" stroke="#132e65" stroke-width="1.5"></path><path d="M-40.83 867.87L-96.35 994.26" stroke="#132e65" stroke-width="1.5"></path><path d="M-40.83 867.87L36.13 983.59" stroke="#132e65" stroke-width="1.5"></path><path d="M-40.83 867.87L60.72 761.61" stroke="#132e65" stroke-width="1.5"></path><path d="M-96.35 994.26L-96.35 994.26" stroke="#132e65" stroke-width="1.5"></path><path d="M-96.35 994.26L36.13 983.59" stroke="#132e65" stroke-width="1.5"></path><path d="M60.72 761.61L60.72 761.61" stroke="#132e65" stroke-width="1.5"></path><path d="M60.72 761.61L196.65 714.21" stroke="#132e65" stroke-width="1.5"></path><path d="M60.72 761.61L210 893.73" stroke="#132e65" stroke-width="1.5"></path><path d="M36.13 983.59L36.13 983.59" stroke="#132e65" stroke-width="1.5"></path><path d="M36.13 983.59L171.77 991.96" stroke="#132e65" stroke-width="1.5"></path><path d="M76.12 1176.97L76.12 1176.97" stroke="#132e65" stroke-width="1.5"></path><path d="M76.12 1176.97L186.82 1132.19" stroke="#132e65" stroke-width="1.5"></path><path d="M76.12 1176.97L36.13 983.59" stroke="#132e65" stroke-width="1.5"></path><path d="M76.12 1176.97L171.77 991.96" stroke="#132e65" stroke-width="1.5"></path><path d="M76.12 1176.97L314.64 1144.94" stroke="#132e65" stroke-width="1.5"></path><path d="M223.63 589.01L223.63 589.01" stroke="#132e65" stroke-width="1.5"></path><path d="M223.63 589.01L196.65 714.21" stroke="#132e65" stroke-width="1.5"></path><path d="M223.63 589.01L367.09 634.12" stroke="#132e65" stroke-width="1.5"></path><path d="M223.63 589.01L357.56 491.62" stroke="#132e65" stroke-width="1.5"></path><path d="M223.63 589.01L338.92 757.79" stroke="#132e65" stroke-width="1.5"></path><path d="M196.65 714.21L196.65 714.21" stroke="#132e65" stroke-width="1.5"></path><path d="M196.65 714.21L338.92 757.79" stroke="#132e65" stroke-width="1.5"></path><path d="M196.65 714.21L210 893.73" stroke="#132e65" stroke-width="1.5"></path><path d="M196.65 714.21L367.09 634.12" stroke="#132e65" stroke-width="1.5"></path><path d="M196.65 714.21L311.73 906.32" stroke="#132e65" stroke-width="1.5"></path><path d="M210 893.73L210 893.73" stroke="#132e65" stroke-width="1.5"></path><path d="M210 893.73L311.73 906.32" stroke="#132e65" stroke-width="1.5"></path><path d="M210 893.73L171.77 991.96" stroke="#132e65" stroke-width="1.5"></path><path d="M210 893.73L307.09 994.92" stroke="#132e65" stroke-width="1.5"></path><path d="M210 893.73L338.92 757.79" stroke="#132e65" stroke-width="1.5"></path><path d="M171.77 991.96L171.77 991.96" stroke="#132e65" stroke-width="1.5"></path><path d="M171.77 991.96L307.09 994.92" stroke="#132e65" stroke-width="1.5"></path><path d="M186.82 1132.19L186.82 1132.19" stroke="#132e65" stroke-width="1.5"></path><path d="M186.82 1132.19L314.64 1144.94" stroke="#132e65" stroke-width="1.5"></path><path d="M186.82 1132.19L171.77 991.96" stroke="#132e65" stroke-width="1.5"></path><path d="M186.82 1132.19L307.09 994.92" stroke="#132e65" stroke-width="1.5"></path><path d="M186.82 1132.19L36.13 983.59" stroke="#132e65" stroke-width="1.5"></path><path d="M357.56 491.62L357.56 491.62" stroke="#132e65" stroke-width="1.5"></path><path d="M357.56 491.62L455.21 502.28" stroke="#132e65" stroke-width="1.5"></path><path d="M357.56 491.62L367.09 634.12" stroke="#132e65" stroke-width="1.5"></path><path d="M357.56 491.62L499.26 603.74" stroke="#132e65" stroke-width="1.5"></path><path d="M357.56 491.62L489.44 361.56" stroke="#132e65" stroke-width="1.5"></path><path d="M357.56 491.62L578.9 473.46" stroke="#132e65" stroke-width="1.5"></path><path d="M367.09 634.12L367.09 634.12" stroke="#132e65" stroke-width="1.5"></path><path d="M367.09 634.12L338.92 757.79" stroke="#132e65" stroke-width="1.5"></path><path d="M367.09 634.12L499.26 603.74" stroke="#132e65" stroke-width="1.5"></path><path d="M338.92 757.79L338.92 757.79" stroke="#132e65" stroke-width="1.5"></path><path d="M338.92 757.79L462.74 753.7" stroke="#132e65" stroke-width="1.5"></path><path d="M311.73 906.32L311.73 906.32" stroke="#132e65" stroke-width="1.5"></path><path d="M311.73 906.32L307.09 994.92" stroke="#132e65" stroke-width="1.5"></path><path d="M311.73 906.32L461.74 901.34" stroke="#132e65" stroke-width="1.5"></path><path d="M307.09 994.92L307.09 994.92" stroke="#132e65" stroke-width="1.5"></path><path d="M307.09 994.92L314.64 1144.94" stroke="#132e65" stroke-width="1.5"></path><path d="M307.09 994.92L480.36 990.43" stroke="#132e65" stroke-width="1.5"></path><path d="M314.64 1144.94L314.64 1144.94" stroke="#132e65" stroke-width="1.5"></path><path d="M314.64 1144.94L464.72 1132.53" stroke="#132e65" stroke-width="1.5"></path><path d="M314.64 1144.94L171.77 991.96" stroke="#132e65" stroke-width="1.5"></path><path d="M314.64 1144.94L480.36 990.43" stroke="#132e65" stroke-width="1.5"></path><path d="M314.64 1144.94L311.73 906.32" stroke="#132e65" stroke-width="1.5"></path><path d="M493.19 90.38L493.19 90.38" stroke="#132e65" stroke-width="1.5"></path><path d="M493.19 90.38L592.08 71.17" stroke="#132e65" stroke-width="1.5"></path><path d="M493.19 90.38L474.76 215.38" stroke="#132e65" stroke-width="1.5"></path><path d="M474.76 215.38L474.76 215.38" stroke="#132e65" stroke-width="1.5"></path><path d="M474.76 215.38L489.44 361.56" stroke="#132e65" stroke-width="1.5"></path><path d="M474.76 215.38L640.11 174.64" stroke="#132e65" stroke-width="1.5"></path><path d="M474.76 215.38L592.08 71.17" stroke="#132e65" stroke-width="1.5"></path><path d="M474.76 215.38L641.02 307.28" stroke="#132e65" stroke-width="1.5"></path><path d="M474.76 215.38L710.04 204.88" stroke="#132e65" stroke-width="1.5"></path><path d="M489.44 361.56L489.44 361.56" stroke="#132e65" stroke-width="1.5"></path><path d="M489.44 361.56L578.9 473.46" stroke="#132e65" stroke-width="1.5"></path><path d="M489.44 361.56L455.21 502.28" stroke="#132e65" stroke-width="1.5"></path><path d="M489.44 361.56L641.02 307.28" stroke="#132e65" stroke-width="1.5"></path><path d="M455.21 502.28L455.21 502.28" stroke="#132e65" stroke-width="1.5"></path><path d="M455.21 502.28L499.26 603.74" stroke="#132e65" stroke-width="1.5"></path><path d="M455.21 502.28L578.9 473.46" stroke="#132e65" stroke-width="1.5"></path><path d="M499.26 603.74L499.26 603.74" stroke="#132e65" stroke-width="1.5"></path><path d="M499.26 603.74L618.26 595.22" stroke="#132e65" stroke-width="1.5"></path><path d="M462.74 753.7L462.74 753.7" stroke="#132e65" stroke-width="1.5"></path><path d="M462.74 753.7L461.74 901.34" stroke="#132e65" stroke-width="1.5"></path><path d="M462.74 753.7L367.09 634.12" stroke="#132e65" stroke-width="1.5"></path><path d="M462.74 753.7L499.26 603.74" stroke="#132e65" stroke-width="1.5"></path><path d="M462.74 753.7L627.63 750.02" stroke="#132e65" stroke-width="1.5"></path><path d="M461.74 901.34L461.74 901.34" stroke="#132e65" stroke-width="1.5"></path><path d="M461.74 901.34L480.36 990.43" stroke="#132e65" stroke-width="1.5"></path><path d="M461.74 901.34L596.57 852.71" stroke="#132e65" stroke-width="1.5"></path><path d="M480.36 990.43L480.36 990.43" stroke="#132e65" stroke-width="1.5"></path><path d="M480.36 990.43L464.72 1132.53" stroke="#132e65" stroke-width="1.5"></path><path d="M480.36 990.43L639.83 1019.02" stroke="#132e65" stroke-width="1.5"></path><path d="M464.72 1132.53L464.72 1132.53" stroke="#132e65" stroke-width="1.5"></path><path d="M464.72 1132.53L607.21 1164.65" stroke="#132e65" stroke-width="1.5"></path><path d="M464.72 1132.53L639.83 1019.02" stroke="#132e65" stroke-width="1.5"></path><path d="M464.72 1132.53L307.09 994.92" stroke="#132e65" stroke-width="1.5"></path><path d="M597.06 -71.74L597.06 -71.74" stroke="#132e65" stroke-width="1.5"></path><path d="M597.06 -71.74L592.08 71.17" stroke="#132e65" stroke-width="1.5"></path><path d="M597.06 -71.74L768.96 -65.61" stroke="#132e65" stroke-width="1.5"></path><path d="M597.06 -71.74L493.19 90.38" stroke="#132e65" stroke-width="1.5"></path><path d="M597.06 -71.74L722.45 78.67" stroke="#132e65" stroke-width="1.5"></path><path d="M597.06 -71.74L640.11 174.64" stroke="#132e65" stroke-width="1.5"></path><path d="M592.08 71.17L592.08 71.17" stroke="#132e65" stroke-width="1.5"></path><path d="M592.08 71.17L640.11 174.64" stroke="#132e65" stroke-width="1.5"></path><path d="M640.11 174.64L640.11 174.64" stroke="#132e65" stroke-width="1.5"></path><path d="M640.11 174.64L710.04 204.88" stroke="#132e65" stroke-width="1.5"></path><path d="M641.02 307.28L641.02 307.28" stroke="#132e65" stroke-width="1.5"></path><path d="M641.02 307.28L710.03 316.46" stroke="#132e65" stroke-width="1.5"></path><path d="M641.02 307.28L710.04 204.88" stroke="#132e65" stroke-width="1.5"></path><path d="M641.02 307.28L640.11 174.64" stroke="#132e65" stroke-width="1.5"></path><path d="M578.9 473.46L578.9 473.46" stroke="#132e65" stroke-width="1.5"></path><path d="M578.9 473.46L618.26 595.22" stroke="#132e65" stroke-width="1.5"></path><path d="M578.9 473.46L499.26 603.74" stroke="#132e65" stroke-width="1.5"></path><path d="M618.26 595.22L618.26 595.22" stroke="#132e65" stroke-width="1.5"></path><path d="M618.26 595.22L760.53 600.93" stroke="#132e65" stroke-width="1.5"></path><path d="M627.63 750.02L627.63 750.02" stroke="#132e65" stroke-width="1.5"></path><path d="M627.63 750.02L734.11 758.46" stroke="#132e65" stroke-width="1.5"></path><path d="M627.63 750.02L596.57 852.71" stroke="#132e65" stroke-width="1.5"></path><path d="M596.57 852.71L596.57 852.71" stroke="#132e65" stroke-width="1.5"></path><path d="M596.57 852.71L751.58 900.32" stroke="#132e65" stroke-width="1.5"></path><path d="M596.57 852.71L462.74 753.7" stroke="#132e65" stroke-width="1.5"></path><path d="M639.83 1019.02L639.83 1019.02" stroke="#132e65" stroke-width="1.5"></path><path d="M639.83 1019.02L717.79 1013.94" stroke="#132e65" stroke-width="1.5"></path><path d="M639.83 1019.02L607.21 1164.65" stroke="#132e65" stroke-width="1.5"></path><path d="M639.83 1019.02L751.72 1131.54" stroke="#132e65" stroke-width="1.5"></path><path d="M607.21 1164.65L607.21 1164.65" stroke="#132e65" stroke-width="1.5"></path><path d="M607.21 1164.65L751.72 1131.54" stroke="#132e65" stroke-width="1.5"></path><path d="M768.96 -65.61L768.96 -65.61" stroke="#132e65" stroke-width="1.5"></path><path d="M768.96 -65.61L904.22 -56.81" stroke="#132e65" stroke-width="1.5"></path><path d="M768.96 -65.61L722.45 78.67" stroke="#132e65" stroke-width="1.5"></path><path d="M768.96 -65.61L866.15 78.55" stroke="#132e65" stroke-width="1.5"></path><path d="M768.96 -65.61L592.08 71.17" stroke="#132e65" stroke-width="1.5"></path><path d="M722.45 78.67L722.45 78.67" stroke="#132e65" stroke-width="1.5"></path><path d="M722.45 78.67L640.11 174.64" stroke="#132e65" stroke-width="1.5"></path><path d="M722.45 78.67L710.04 204.88" stroke="#132e65" stroke-width="1.5"></path><path d="M722.45 78.67L592.08 71.17" stroke="#132e65" stroke-width="1.5"></path><path d="M722.45 78.67L866.15 78.55" stroke="#132e65" stroke-width="1.5"></path><path d="M710.04 204.88L710.04 204.88" stroke="#132e65" stroke-width="1.5"></path><path d="M710.04 204.88L710.03 316.46" stroke="#132e65" stroke-width="1.5"></path><path d="M710.03 316.46L710.03 316.46" stroke="#132e65" stroke-width="1.5"></path><path d="M710.03 316.46L849.48 344.1" stroke="#132e65" stroke-width="1.5"></path><path d="M710.03 316.46L767.49 451.58" stroke="#132e65" stroke-width="1.5"></path><path d="M710.03 316.46L640.11 174.64" stroke="#132e65" stroke-width="1.5"></path><path d="M767.49 451.58L767.49 451.58" stroke="#132e65" stroke-width="1.5"></path><path d="M767.49 451.58L846.03 456.63" stroke="#132e65" stroke-width="1.5"></path><path d="M767.49 451.58L849.48 344.1" stroke="#132e65" stroke-width="1.5"></path><path d="M767.49 451.58L760.53 600.93" stroke="#132e65" stroke-width="1.5"></path><path d="M760.53 600.93L760.53 600.93" stroke="#132e65" stroke-width="1.5"></path><path d="M760.53 600.93L899.57 609.29" stroke="#132e65" stroke-width="1.5"></path><path d="M734.11 758.46L734.11 758.46" stroke="#132e65" stroke-width="1.5"></path><path d="M734.11 758.46L845.85 753.27" stroke="#132e65" stroke-width="1.5"></path><path d="M734.11 758.46L751.58 900.32" stroke="#132e65" stroke-width="1.5"></path><path d="M751.58 900.32L751.58 900.32" stroke="#132e65" stroke-width="1.5"></path><path d="M751.58 900.32L717.79 1013.94" stroke="#132e65" stroke-width="1.5"></path><path d="M751.58 900.32L848.86 980.67" stroke="#132e65" stroke-width="1.5"></path><path d="M717.79 1013.94L717.79 1013.94" stroke="#132e65" stroke-width="1.5"></path><path d="M751.72 1131.54L751.72 1131.54" stroke="#132e65" stroke-width="1.5"></path><path d="M751.72 1131.54L717.79 1013.94" stroke="#132e65" stroke-width="1.5"></path><path d="M904.22 -56.81L904.22 -56.81" stroke="#132e65" stroke-width="1.5"></path><path d="M904.22 -56.81L866.15 78.55" stroke="#132e65" stroke-width="1.5"></path><path d="M904.22 -56.81L722.45 78.67" stroke="#132e65" stroke-width="1.5"></path><path d="M866.15 78.55L866.15 78.55" stroke="#132e65" stroke-width="1.5"></path><path d="M866.15 78.55L882.89 172.6" stroke="#132e65" stroke-width="1.5"></path><path d="M882.89 172.6L882.89 172.6" stroke="#132e65" stroke-width="1.5"></path><path d="M882.89 172.6L849.48 344.1" stroke="#132e65" stroke-width="1.5"></path><path d="M882.89 172.6L710.04 204.88" stroke="#132e65" stroke-width="1.5"></path><path d="M882.89 172.6L722.45 78.67" stroke="#132e65" stroke-width="1.5"></path><path d="M882.89 172.6L710.03 316.46" stroke="#132e65" stroke-width="1.5"></path><path d="M882.89 172.6L904.22 -56.81" stroke="#132e65" stroke-width="1.5"></path><path d="M849.48 344.1L849.48 344.1" stroke="#132e65" stroke-width="1.5"></path><path d="M849.48 344.1L846.03 456.63" stroke="#132e65" stroke-width="1.5"></path><path d="M846.03 456.63L846.03 456.63" stroke="#132e65" stroke-width="1.5"></path><path d="M846.03 456.63L899.57 609.29" stroke="#132e65" stroke-width="1.5"></path><path d="M846.03 456.63L760.53 600.93" stroke="#132e65" stroke-width="1.5"></path><path d="M899.57 609.29L899.57 609.29" stroke="#132e65" stroke-width="1.5"></path><path d="M899.57 609.29L845.85 753.27" stroke="#132e65" stroke-width="1.5"></path><path d="M899.57 609.29L767.49 451.58" stroke="#132e65" stroke-width="1.5"></path><path d="M899.57 609.29L734.11 758.46" stroke="#132e65" stroke-width="1.5"></path><path d="M845.85 753.27L845.85 753.27" stroke="#132e65" stroke-width="1.5"></path><path d="M902.03 909.77L902.03 909.77" stroke="#132e65" stroke-width="1.5"></path><path d="M902.03 909.77L848.86 980.67" stroke="#132e65" stroke-width="1.5"></path><path d="M902.03 909.77L751.58 900.32" stroke="#132e65" stroke-width="1.5"></path><path d="M902.03 909.77L845.85 753.27" stroke="#132e65" stroke-width="1.5"></path><path d="M902.03 909.77L717.79 1013.94" stroke="#132e65" stroke-width="1.5"></path><path d="M902.03 909.77L734.11 758.46" stroke="#132e65" stroke-width="1.5"></path><path d="M848.86 980.67L848.86 980.67" stroke="#132e65" stroke-width="1.5"></path><path d="M848.86 980.67L717.79 1013.94" stroke="#132e65" stroke-width="1.5"></path><path d="M848.86 980.67L751.72 1131.54" stroke="#132e65" stroke-width="1.5"></path><path d="M898.21 1157.83L898.21 1157.83" stroke="#132e65" stroke-width="1.5"></path><path d="M898.21 1157.83L751.72 1131.54" stroke="#132e65" stroke-width="1.5"></path><path d="M898.21 1157.83L848.86 980.67" stroke="#132e65" stroke-width="1.5"></path><path d="M898.21 1157.83L717.79 1013.94" stroke="#132e65" stroke-width="1.5"></path><path d="M898.21 1157.83L902.03 909.77" stroke="#132e65" stroke-width="1.5"></path><path d="M898.21 1157.83L607.21 1164.65" stroke="#132e65" stroke-width="1.5"></path><circle r="5" cx="-86.36" cy="750.64" fill="#132e65"></circle><circle r="5" cx="-40.83" cy="867.87" fill="#132e65"></circle><circle r="5" cx="-96.35" cy="994.26" fill="#132e65"></circle><circle r="5" cx="60.72" cy="761.61" fill="#132e65"></circle><circle r="5" cx="36.13" cy="983.59" fill="#132e65"></circle><circle r="5" cx="76.12" cy="1176.97" fill="#132e65"></circle><circle r="5" cx="223.63" cy="589.01" fill="#132e65"></circle><circle r="5" cx="196.65" cy="714.21" fill="#132e65"></circle><circle r="5" cx="210" cy="893.73" fill="#132e65"></circle><circle r="5" cx="171.77" cy="991.96" fill="#132e65"></circle><circle r="5" cx="186.82" cy="1132.19" fill="#132e65"></circle><circle r="5" cx="357.56" cy="491.62" fill="#132e65"></circle><circle r="5" cx="367.09" cy="634.12" fill="#132e65"></circle><circle r="5" cx="338.92" cy="757.79" fill="#132e65"></circle><circle r="5" cx="311.73" cy="906.32" fill="#132e65"></circle><circle r="5" cx="307.09" cy="994.92" fill="#132e65"></circle><circle r="5" cx="314.64" cy="1144.94" fill="#132e65"></circle><circle r="5" cx="493.19" cy="90.38" fill="#132e65"></circle><circle r="5" cx="474.76" cy="215.38" fill="#132e65"></circle><circle r="5" cx="489.44" cy="361.56" fill="#132e65"></circle><circle r="5" cx="455.21" cy="502.28" fill="#132e65"></circle><circle r="5" cx="499.26" cy="603.74" fill="#132e65"></circle><circle r="5" cx="462.74" cy="753.7" fill="#132e65"></circle><circle r="5" cx="461.74" cy="901.34" fill="#132e65"></circle><circle r="5" cx="480.36" cy="990.43" fill="#132e65"></circle><circle r="5" cx="464.72" cy="1132.53" fill="#132e65"></circle><circle r="5" cx="597.06" cy="-71.74" fill="#132e65"></circle><circle r="5" cx="592.08" cy="71.17" fill="#132e65"></circle><circle r="5" cx="640.11" cy="174.64" fill="#132e65"></circle><circle r="5" cx="641.02" cy="307.28" fill="#132e65"></circle><circle r="5" cx="578.9" cy="473.46" fill="#132e65"></circle><circle r="5" cx="618.26" cy="595.22" fill="#132e65"></circle><circle r="5" cx="627.63" cy="750.02" fill="#132e65"></circle><circle r="5" cx="596.57" cy="852.71" fill="#132e65"></circle><circle r="5" cx="639.83" cy="1019.02" fill="#132e65"></circle><circle r="5" cx="607.21" cy="1164.65" fill="#132e65"></circle><circle r="5" cx="768.96" cy="-65.61" fill="#132e65"></circle><circle r="5" cx="722.45" cy="78.67" fill="#132e65"></circle><circle r="5" cx="710.04" cy="204.88" fill="#132e65"></circle><circle r="5" cx="710.03" cy="316.46" fill="#132e65"></circle><circle r="5" cx="767.49" cy="451.58" fill="#132e65"></circle><circle r="5" cx="760.53" cy="600.93" fill="#132e65"></circle><circle r="5" cx="734.11" cy="758.46" fill="#132e65"></circle><circle r="5" cx="751.58" cy="900.32" fill="#132e65"></circle><circle r="5" cx="717.79" cy="1013.94" fill="#132e65"></circle><circle r="5" cx="751.72" cy="1131.54" fill="#132e65"></circle><circle r="5" cx="904.22" cy="-56.81" fill="#132e65"></circle><circle r="5" cx="866.15" cy="78.55" fill="#132e65"></circle><circle r="5" cx="882.89" cy="172.6" fill="#132e65"></circle><circle r="5" cx="849.48" cy="344.1" fill="#132e65"></circle><circle r="5" cx="846.03" cy="456.63" fill="#132e65"></circle><circle r="5" cx="899.57" cy="609.29" fill="#132e65"></circle><circle r="5" cx="845.85" cy="753.27" fill="#132e65"></circle><circle r="5" cx="902.03" cy="909.77" fill="#132e65"></circle><circle r="5" cx="848.86" cy="980.67" fill="#132e65"></circle><circle r="5" cx="898.21" cy="1157.83" fill="#132e65"></circle><path d="M95.08 1038.87L95.08 1038.87" stroke="hsl(228.5, 77.2%, 51.5%)" stroke-width="1.5"></path><path d="M95.08 1038.87L195.39 1123.62" stroke="hsl(228.5, 77.2%, 51.5%)" stroke-width="1.5"></path><path d="M95.08 1038.87L232.76 992.06" stroke="hsl(228.5, 77.2%, 51.5%)" stroke-width="1.5"></path><path d="M467.06 747.21L467.06 747.21" stroke="hsl(228.5, 77.2%, 51.5%)" stroke-width="1.5"></path><path d="M467.06 747.21L366.89 750.49" stroke="hsl(228.5, 77.2%, 51.5%)" stroke-width="1.5"></path><path d="M467.06 747.21L489.17 907.49" stroke="hsl(228.5, 77.2%, 51.5%)" stroke-width="1.5"></path><path d="M467.06 747.21L469.56 584.89" stroke="hsl(228.5, 77.2%, 51.5%)" stroke-width="1.5"></path><path d="M467.06 747.21L639.02 755.44" stroke="hsl(228.5, 77.2%, 51.5%)" stroke-width="1.5"></path><path d="M467.06 747.21L362.76 884.5" stroke="hsl(228.5, 77.2%, 51.5%)" stroke-width="1.5"></path><path d="M488.91 981.82L488.91 981.82" stroke="hsl(228.5, 77.2%, 51.5%)" stroke-width="1.5"></path><path d="M488.91 981.82L489.17 907.49" stroke="hsl(228.5, 77.2%, 51.5%)" stroke-width="1.5"></path><path d="M488.91 981.82L599.69 907.4" stroke="hsl(228.5, 77.2%, 51.5%)" stroke-width="1.5"></path><path d="M488.91 981.82L614.46 1045.01" stroke="hsl(228.5, 77.2%, 51.5%)" stroke-width="1.5"></path><path d="M488.91 981.82L355.31 1032.16" stroke="hsl(228.5, 77.2%, 51.5%)" stroke-width="1.5"></path><path d="M488.91 981.82L362.76 884.5" stroke="hsl(228.5, 77.2%, 51.5%)" stroke-width="1.5"></path><path d="M622.9 223.04L622.9 223.04" stroke="hsl(228.5, 77.2%, 51.5%)" stroke-width="1.5"></path><path d="M622.9 223.04L590.19 344.03" stroke="hsl(228.5, 77.2%, 51.5%)" stroke-width="1.5"></path><path d="M622.9 223.04L761.69 173.69" stroke="hsl(228.5, 77.2%, 51.5%)" stroke-width="1.5"></path><path d="M622.9 223.04L739.23 325.16" stroke="hsl(228.5, 77.2%, 51.5%)" stroke-width="1.5"></path><path d="M622.9 223.04L724.04 98.89" stroke="hsl(228.5, 77.2%, 51.5%)" stroke-width="1.5"></path><path d="M622.9 223.04L869 175.42" stroke="hsl(228.5, 77.2%, 51.5%)" stroke-width="1.5"></path><path d="M622.9 223.04L747.13 451.26" stroke="hsl(228.5, 77.2%, 51.5%)" stroke-width="1.5"></path><path d="M590.19 344.03L590.19 344.03" stroke="hsl(228.5, 77.2%, 51.5%)" stroke-width="1.5"></path><path d="M724.04 98.89L724.04 98.89" stroke="hsl(228.5, 77.2%, 51.5%)" stroke-width="1.5"></path><path d="M724.04 98.89L761.69 173.69" stroke="hsl(228.5, 77.2%, 51.5%)" stroke-width="1.5"></path><path d="M724.04 98.89L756.13 -40.34" stroke="hsl(228.5, 77.2%, 51.5%)" stroke-width="1.5"></path><path d="M724.04 98.89L869 175.42" stroke="hsl(228.5, 77.2%, 51.5%)" stroke-width="1.5"></path><path d="M724.04 98.89L887.37 62.33" stroke="hsl(228.5, 77.2%, 51.5%)" stroke-width="1.5"></path><path d="M724.04 98.89L891.7 -36.23" stroke="hsl(228.5, 77.2%, 51.5%)" stroke-width="1.5"></path><path d="M769.74 727.27L769.74 727.27" stroke="hsl(228.5, 77.2%, 51.5%)" stroke-width="1.5"></path><path d="M769.74 727.27L864.26 736.22" stroke="hsl(228.5, 77.2%, 51.5%)" stroke-width="1.5"></path><path d="M769.74 727.27L639.02 755.44" stroke="hsl(228.5, 77.2%, 51.5%)" stroke-width="1.5"></path><path d="M740.56 1038.42L740.56 1038.42" stroke="hsl(228.5, 77.2%, 51.5%)" stroke-width="1.5"></path><path d="M740.56 1038.42L766.42 1147.47" stroke="hsl(228.5, 77.2%, 51.5%)" stroke-width="1.5"></path><path d="M740.56 1038.42L863.87 1011.25" stroke="hsl(228.5, 77.2%, 51.5%)" stroke-width="1.5"></path><path d="M740.56 1038.42L614.46 1045.01" stroke="hsl(228.5, 77.2%, 51.5%)" stroke-width="1.5"></path><path d="M853.46 575.56L853.46 575.56" stroke="hsl(228.5, 77.2%, 51.5%)" stroke-width="1.5"></path><path d="M853.46 575.56L767.65 576.53" stroke="hsl(228.5, 77.2%, 51.5%)" stroke-width="1.5"></path><path d="M853.46 575.56L905.43 439.21" stroke="hsl(228.5, 77.2%, 51.5%)" stroke-width="1.5"></path><path d="M853.46 575.56L864.26 736.22" stroke="hsl(228.5, 77.2%, 51.5%)" stroke-width="1.5"></path><path d="M-98.69 906.25L-98.69 906.25" stroke="hsl(228.5, 77.2%, 51.5%)" stroke-width="1.5"></path><path d="M-98.69 906.25L-98.76 1028.17" stroke="hsl(228.5, 77.2%, 51.5%)" stroke-width="1.5"></path><path d="M-98.69 906.25L46.55 882.62" stroke="hsl(228.5, 77.2%, 51.5%)" stroke-width="1.5"></path><path d="M-98.69 906.25L95.08 1038.87" stroke="hsl(228.5, 77.2%, 51.5%)" stroke-width="1.5"></path><path d="M-98.76 1028.17L-98.76 1028.17" stroke="hsl(228.5, 77.2%, 51.5%)" stroke-width="1.5"></path><path d="M-98.76 1028.17L-50.21 1165.24" stroke="hsl(228.5, 77.2%, 51.5%)" stroke-width="1.5"></path><path d="M-98.76 1028.17L95.08 1038.87" stroke="hsl(228.5, 77.2%, 51.5%)" stroke-width="1.5"></path><path d="M-98.76 1028.17L46.55 882.62" stroke="hsl(228.5, 77.2%, 51.5%)" stroke-width="1.5"></path><path d="M-98.76 1028.17L195.39 1123.62" stroke="hsl(228.5, 77.2%, 51.5%)" stroke-width="1.5"></path><path d="M-50.21 1165.24L-50.21 1165.24" stroke="hsl(228.5, 77.2%, 51.5%)" stroke-width="1.5"></path><path d="M-50.21 1165.24L95.08 1038.87" stroke="hsl(228.5, 77.2%, 51.5%)" stroke-width="1.5"></path><path d="M-50.21 1165.24L195.39 1123.62" stroke="hsl(228.5, 77.2%, 51.5%)" stroke-width="1.5"></path><path d="M-50.21 1165.24L-98.69 906.25" stroke="hsl(228.5, 77.2%, 51.5%)" stroke-width="1.5"></path><path d="M-50.21 1165.24L46.55 882.62" stroke="hsl(228.5, 77.2%, 51.5%)" stroke-width="1.5"></path><path d="M-50.21 1165.24L232.76 992.06" stroke="hsl(228.5, 77.2%, 51.5%)" stroke-width="1.5"></path><path d="M46.55 882.62L46.55 882.62" stroke="hsl(228.5, 77.2%, 51.5%)" stroke-width="1.5"></path><path d="M46.55 882.62L95.08 1038.87" stroke="hsl(228.5, 77.2%, 51.5%)" stroke-width="1.5"></path><path d="M46.55 882.62L223.34 849.69" stroke="hsl(228.5, 77.2%, 51.5%)" stroke-width="1.5"></path><path d="M223.34 849.69L223.34 849.69" stroke="hsl(228.5, 77.2%, 51.5%)" stroke-width="1.5"></path><path d="M223.34 849.69L232.76 992.06" stroke="hsl(228.5, 77.2%, 51.5%)" stroke-width="1.5"></path><path d="M232.76 992.06L232.76 992.06" stroke="hsl(228.5, 77.2%, 51.5%)" stroke-width="1.5"></path><path d="M232.76 992.06L355.31 1032.16" stroke="hsl(228.5, 77.2%, 51.5%)" stroke-width="1.5"></path><path d="M232.76 992.06L195.39 1123.62" stroke="hsl(228.5, 77.2%, 51.5%)" stroke-width="1.5"></path><path d="M195.39 1123.62L195.39 1123.62" stroke="hsl(228.5, 77.2%, 51.5%)" stroke-width="1.5"></path><path d="M195.39 1123.62L355.27 1178.22" stroke="hsl(228.5, 77.2%, 51.5%)" stroke-width="1.5"></path><path d="M195.39 1123.62L355.31 1032.16" stroke="hsl(228.5, 77.2%, 51.5%)" stroke-width="1.5"></path><path d="M195.39 1123.62L223.34 849.69" stroke="hsl(228.5, 77.2%, 51.5%)" stroke-width="1.5"></path><path d="M366.89 750.49L366.89 750.49" stroke="hsl(228.5, 77.2%, 51.5%)" stroke-width="1.5"></path><path d="M366.89 750.49L362.76 884.5" stroke="hsl(228.5, 77.2%, 51.5%)" stroke-width="1.5"></path><path d="M366.89 750.49L223.34 849.69" stroke="hsl(228.5, 77.2%, 51.5%)" stroke-width="1.5"></path><path d="M366.89 750.49L469.56 584.89" stroke="hsl(228.5, 77.2%, 51.5%)" stroke-width="1.5"></path><path d="M366.89 750.49L489.17 907.49" stroke="hsl(228.5, 77.2%, 51.5%)" stroke-width="1.5"></path><path d="M362.76 884.5L362.76 884.5" stroke="hsl(228.5, 77.2%, 51.5%)" stroke-width="1.5"></path><path d="M362.76 884.5L489.17 907.49" stroke="hsl(228.5, 77.2%, 51.5%)" stroke-width="1.5"></path><path d="M362.76 884.5L223.34 849.69" stroke="hsl(228.5, 77.2%, 51.5%)" stroke-width="1.5"></path><path d="M362.76 884.5L355.31 1032.16" stroke="hsl(228.5, 77.2%, 51.5%)" stroke-width="1.5"></path><path d="M355.31 1032.16L355.31 1032.16" stroke="hsl(228.5, 77.2%, 51.5%)" stroke-width="1.5"></path><path d="M355.27 1178.22L355.27 1178.22" stroke="hsl(228.5, 77.2%, 51.5%)" stroke-width="1.5"></path><path d="M355.27 1178.22L469.13 1161.69" stroke="hsl(228.5, 77.2%, 51.5%)" stroke-width="1.5"></path><path d="M355.27 1178.22L355.31 1032.16" stroke="hsl(228.5, 77.2%, 51.5%)" stroke-width="1.5"></path><path d="M355.27 1178.22L232.76 992.06" stroke="hsl(228.5, 77.2%, 51.5%)" stroke-width="1.5"></path><path d="M500.93 499.42L500.93 499.42" stroke="hsl(228.5, 77.2%, 51.5%)" stroke-width="1.5"></path><path d="M500.93 499.42L582 501.84" stroke="hsl(228.5, 77.2%, 51.5%)" stroke-width="1.5"></path><path d="M500.93 499.42L469.56 584.89" stroke="hsl(228.5, 77.2%, 51.5%)" stroke-width="1.5"></path><path d="M500.93 499.42L604.71 608.11" stroke="hsl(228.5, 77.2%, 51.5%)" stroke-width="1.5"></path><path d="M500.93 499.42L590.19 344.03" stroke="hsl(228.5, 77.2%, 51.5%)" stroke-width="1.5"></path><path d="M500.93 499.42L467.06 747.21" stroke="hsl(228.5, 77.2%, 51.5%)" stroke-width="1.5"></path><path d="M500.93 499.42L747.13 451.26" stroke="hsl(228.5, 77.2%, 51.5%)" stroke-width="1.5"></path><path d="M469.56 584.89L469.56 584.89" stroke="hsl(228.5, 77.2%, 51.5%)" stroke-width="1.5"></path><path d="M469.56 584.89L604.71 608.11" stroke="hsl(228.5, 77.2%, 51.5%)" stroke-width="1.5"></path><path d="M489.17 907.49L489.17 907.49" stroke="hsl(228.5, 77.2%, 51.5%)" stroke-width="1.5"></path><path d="M489.17 907.49L599.69 907.4" stroke="hsl(228.5, 77.2%, 51.5%)" stroke-width="1.5"></path><path d="M489.17 907.49L355.31 1032.16" stroke="hsl(228.5, 77.2%, 51.5%)" stroke-width="1.5"></path><path d="M469.13 1161.69L469.13 1161.69" stroke="hsl(228.5, 77.2%, 51.5%)" stroke-width="1.5"></path><path d="M469.13 1161.69L614.92 1149.45" stroke="hsl(228.5, 77.2%, 51.5%)" stroke-width="1.5"></path><path d="M582 501.84L582 501.84" stroke="hsl(228.5, 77.2%, 51.5%)" stroke-width="1.5"></path><path d="M582 501.84L604.71 608.11" stroke="hsl(228.5, 77.2%, 51.5%)" stroke-width="1.5"></path><path d="M582 501.84L469.56 584.89" stroke="hsl(228.5, 77.2%, 51.5%)" stroke-width="1.5"></path><path d="M604.71 608.11L604.71 608.11" stroke="hsl(228.5, 77.2%, 51.5%)" stroke-width="1.5"></path><path d="M604.71 608.11L639.02 755.44" stroke="hsl(228.5, 77.2%, 51.5%)" stroke-width="1.5"></path><path d="M639.02 755.44L639.02 755.44" stroke="hsl(228.5, 77.2%, 51.5%)" stroke-width="1.5"></path><path d="M639.02 755.44L723.55 864.36" stroke="hsl(228.5, 77.2%, 51.5%)" stroke-width="1.5"></path><path d="M599.69 907.4L599.69 907.4" stroke="hsl(228.5, 77.2%, 51.5%)" stroke-width="1.5"></path><path d="M599.69 907.4L723.55 864.36" stroke="hsl(228.5, 77.2%, 51.5%)" stroke-width="1.5"></path><path d="M599.69 907.4L614.46 1045.01" stroke="hsl(228.5, 77.2%, 51.5%)" stroke-width="1.5"></path><path d="M599.69 907.4L639.02 755.44" stroke="hsl(228.5, 77.2%, 51.5%)" stroke-width="1.5"></path><path d="M599.69 907.4L740.56 1038.42" stroke="hsl(228.5, 77.2%, 51.5%)" stroke-width="1.5"></path><path d="M614.46 1045.01L614.46 1045.01" stroke="hsl(228.5, 77.2%, 51.5%)" stroke-width="1.5"></path><path d="M614.46 1045.01L614.92 1149.45" stroke="hsl(228.5, 77.2%, 51.5%)" stroke-width="1.5"></path><path d="M614.46 1045.01L766.42 1147.47" stroke="hsl(228.5, 77.2%, 51.5%)" stroke-width="1.5"></path><path d="M614.46 1045.01L489.17 907.49" stroke="hsl(228.5, 77.2%, 51.5%)" stroke-width="1.5"></path><path d="M614.92 1149.45L614.92 1149.45" stroke="hsl(228.5, 77.2%, 51.5%)" stroke-width="1.5"></path><path d="M614.92 1149.45L766.42 1147.47" stroke="hsl(228.5, 77.2%, 51.5%)" stroke-width="1.5"></path><path d="M614.92 1149.45L740.56 1038.42" stroke="hsl(228.5, 77.2%, 51.5%)" stroke-width="1.5"></path><path d="M614.92 1149.45L488.91 981.82" stroke="hsl(228.5, 77.2%, 51.5%)" stroke-width="1.5"></path><path d="M614.92 1149.45L599.69 907.4" stroke="hsl(228.5, 77.2%, 51.5%)" stroke-width="1.5"></path><path d="M756.13 -40.34L756.13 -40.34" stroke="hsl(228.5, 77.2%, 51.5%)" stroke-width="1.5"></path><path d="M756.13 -40.34L891.7 -36.23" stroke="hsl(228.5, 77.2%, 51.5%)" stroke-width="1.5"></path><path d="M756.13 -40.34L887.37 62.33" stroke="hsl(228.5, 77.2%, 51.5%)" stroke-width="1.5"></path><path d="M756.13 -40.34L761.69 173.69" stroke="hsl(228.5, 77.2%, 51.5%)" stroke-width="1.5"></path><path d="M761.69 173.69L761.69 173.69" stroke="hsl(228.5, 77.2%, 51.5%)" stroke-width="1.5"></path><path d="M761.69 173.69L869 175.42" stroke="hsl(228.5, 77.2%, 51.5%)" stroke-width="1.5"></path><path d="M739.23 325.16L739.23 325.16" stroke="hsl(228.5, 77.2%, 51.5%)" stroke-width="1.5"></path><path d="M739.23 325.16L747.13 451.26" stroke="hsl(228.5, 77.2%, 51.5%)" stroke-width="1.5"></path><path d="M739.23 325.16L866.49 356.51" stroke="hsl(228.5, 77.2%, 51.5%)" stroke-width="1.5"></path><path d="M739.23 325.16L590.19 344.03" stroke="hsl(228.5, 77.2%, 51.5%)" stroke-width="1.5"></path><path d="M739.23 325.16L761.69 173.69" stroke="hsl(228.5, 77.2%, 51.5%)" stroke-width="1.5"></path><path d="M747.13 451.26L747.13 451.26" stroke="hsl(228.5, 77.2%, 51.5%)" stroke-width="1.5"></path><path d="M747.13 451.26L767.65 576.53" stroke="hsl(228.5, 77.2%, 51.5%)" stroke-width="1.5"></path><path d="M767.65 576.53L767.65 576.53" stroke="hsl(228.5, 77.2%, 51.5%)" stroke-width="1.5"></path><path d="M767.65 576.53L769.74 727.27" stroke="hsl(228.5, 77.2%, 51.5%)" stroke-width="1.5"></path><path d="M723.55 864.36L723.55 864.36" stroke="hsl(228.5, 77.2%, 51.5%)" stroke-width="1.5"></path><path d="M766.42 1147.47L766.42 1147.47" stroke="hsl(228.5, 77.2%, 51.5%)" stroke-width="1.5"></path><path d="M766.42 1147.47L878.17 1153.4" stroke="hsl(228.5, 77.2%, 51.5%)" stroke-width="1.5"></path><path d="M766.42 1147.47L863.87 1011.25" stroke="hsl(228.5, 77.2%, 51.5%)" stroke-width="1.5"></path><path d="M891.7 -36.23L891.7 -36.23" stroke="hsl(228.5, 77.2%, 51.5%)" stroke-width="1.5"></path><path d="M891.7 -36.23L887.37 62.33" stroke="hsl(228.5, 77.2%, 51.5%)" stroke-width="1.5"></path><path d="M891.7 -36.23L869 175.42" stroke="hsl(228.5, 77.2%, 51.5%)" stroke-width="1.5"></path><path d="M887.37 62.33L887.37 62.33" stroke="hsl(228.5, 77.2%, 51.5%)" stroke-width="1.5"></path><path d="M887.37 62.33L869 175.42" stroke="hsl(228.5, 77.2%, 51.5%)" stroke-width="1.5"></path><path d="M887.37 62.33L761.69 173.69" stroke="hsl(228.5, 77.2%, 51.5%)" stroke-width="1.5"></path><path d="M869 175.42L869 175.42" stroke="hsl(228.5, 77.2%, 51.5%)" stroke-width="1.5"></path><path d="M869 175.42L866.49 356.51" stroke="hsl(228.5, 77.2%, 51.5%)" stroke-width="1.5"></path><path d="M869 175.42L739.23 325.16" stroke="hsl(228.5, 77.2%, 51.5%)" stroke-width="1.5"></path><path d="M866.49 356.51L866.49 356.51" stroke="hsl(228.5, 77.2%, 51.5%)" stroke-width="1.5"></path><path d="M866.49 356.51L905.43 439.21" stroke="hsl(228.5, 77.2%, 51.5%)" stroke-width="1.5"></path><path d="M905.43 439.21L905.43 439.21" stroke="hsl(228.5, 77.2%, 51.5%)" stroke-width="1.5"></path><path d="M905.43 439.21L747.13 451.26" stroke="hsl(228.5, 77.2%, 51.5%)" stroke-width="1.5"></path><path d="M905.43 439.21L767.65 576.53" stroke="hsl(228.5, 77.2%, 51.5%)" stroke-width="1.5"></path><path d="M905.43 439.21L739.23 325.16" stroke="hsl(228.5, 77.2%, 51.5%)" stroke-width="1.5"></path><path d="M864.26 736.22L864.26 736.22" stroke="hsl(228.5, 77.2%, 51.5%)" stroke-width="1.5"></path><path d="M864.26 736.22L767.65 576.53" stroke="hsl(228.5, 77.2%, 51.5%)" stroke-width="1.5"></path><path d="M863.87 1011.25L863.87 1011.25" stroke="hsl(228.5, 77.2%, 51.5%)" stroke-width="1.5"></path><path d="M863.87 1011.25L878.17 1153.4" stroke="hsl(228.5, 77.2%, 51.5%)" stroke-width="1.5"></path><path d="M878.17 1153.4L878.17 1153.4" stroke="hsl(228.5, 77.2%, 51.5%)" stroke-width="1.5"></path><circle r="25" cx="95.08" cy="1038.87" fill="url(#SvgjsRadialGradient1007)"></circle><circle r="25" cx="467.06" cy="747.21" fill="url(#SvgjsRadialGradient1007)"></circle><circle r="25" cx="488.91" cy="981.82" fill="url(#SvgjsRadialGradient1007)"></circle><circle r="25" cx="622.9" cy="223.04" fill="url(#SvgjsRadialGradient1007)"></circle><circle r="25" cx="590.19" cy="344.03" fill="url(#SvgjsRadialGradient1007)"></circle><circle r="25" cx="724.04" cy="98.89" fill="url(#SvgjsRadialGradient1007)"></circle><circle r="25" cx="769.74" cy="727.27" fill="url(#SvgjsRadialGradient1007)"></circle><circle r="25" cx="740.56" cy="1038.42" fill="url(#SvgjsRadialGradient1007)"></circle><circle r="25" cx="853.46" cy="575.56" fill="url(#SvgjsRadialGradient1007)"></circle><circle r="5" cx="-98.69" cy="906.25" fill="#8b9ad9"></circle><circle r="5" cx="-98.76" cy="1028.17" fill="#8b9ad9"></circle><circle r="5" cx="-50.21" cy="1165.24" fill="#8b9ad9"></circle><circle r="5" cx="46.55" cy="882.62" fill="#8b9ad9"></circle><circle r="5" cx="223.34" cy="849.69" fill="#8b9ad9"></circle><circle r="5" cx="232.76" cy="992.06" fill="#8b9ad9"></circle><circle r="5" cx="195.39" cy="1123.62" fill="#8b9ad9"></circle><circle r="5" cx="366.89" cy="750.49" fill="#8b9ad9"></circle><circle r="5" cx="362.76" cy="884.5" fill="#8b9ad9"></circle><circle r="5" cx="355.31" cy="1032.16" fill="#8b9ad9"></circle><circle r="5" cx="355.27" cy="1178.22" fill="#8b9ad9"></circle><circle r="5" cx="500.93" cy="499.42" fill="#8b9ad9"></circle><circle r="5" cx="469.56" cy="584.89" fill="#8b9ad9"></circle><circle r="5" cx="489.17" cy="907.49" fill="#8b9ad9"></circle><circle r="5" cx="469.13" cy="1161.69" fill="#8b9ad9"></circle><circle r="5" cx="582" cy="501.84" fill="#8b9ad9"></circle><circle r="5" cx="604.71" cy="608.11" fill="#8b9ad9"></circle><circle r="5" cx="639.02" cy="755.44" fill="#8b9ad9"></circle><circle r="5" cx="599.69" cy="907.4" fill="#8b9ad9"></circle><circle r="5" cx="614.46" cy="1045.01" fill="#8b9ad9"></circle><circle r="5" cx="614.92" cy="1149.45" fill="#8b9ad9"></circle><circle r="5" cx="756.13" cy="-40.34" fill="#8b9ad9"></circle><circle r="5" cx="761.69" cy="173.69" fill="#8b9ad9"></circle><circle r="5" cx="739.23" cy="325.16" fill="#8b9ad9"></circle><circle r="5" cx="747.13" cy="451.26" fill="#8b9ad9"></circle><circle r="5" cx="767.65" cy="576.53" fill="#8b9ad9"></circle><circle r="5" cx="723.55" cy="864.36" fill="#8b9ad9"></circle><circle r="5" cx="766.42" cy="1147.47" fill="#8b9ad9"></circle><circle r="5" cx="891.7" cy="-36.23" fill="#8b9ad9"></circle><circle r="5" cx="887.37" cy="62.33" fill="#8b9ad9"></circle><circle r="5" cx="869" cy="175.42" fill="#8b9ad9"></circle><circle r="5" cx="866.49" cy="356.51" fill="#8b9ad9"></circle><circle r="5" cx="905.43" cy="439.21" fill="#8b9ad9"></circle><circle r="5" cx="864.26" cy="736.22" fill="#8b9ad9"></circle><circle r="5" cx="863.87" cy="1011.25" fill="#8b9ad9"></circle><circle r="5" cx="878.17" cy="1153.4" fill="#8b9ad9"></circle></g><defs><mask id="SvgjsMask1006"><rect width="767" height="1080" fill="#ffffff"></rect></mask><radialGradient id="SvgjsRadialGradient1007"><stop stop-color="#ffffff" offset="0.1"></stop><stop stop-color="#1735b3" offset="0.2"></stop><stop stop-color="rgba(23, 53, 179, 0)" offset="1"></stop></radialGradient></defs></svg>